<svg width="24" height="6" viewBox="0 0 24 6" fill="none" xmlns="http://www.w3.org/2000/svg">
<path d="M6.42871 3C6.42871 1.67227 5.08568 0.59375 3.42871 0.59375C1.77175 0.59375 0.428711 1.67227 0.428711 3C0.428711 4.32773 1.77175 5.40625 3.42871 5.40625C5.08568 5.40625 6.42871 4.32773 6.42871 3ZM15.0001 3C15.0001 1.67227 13.6555 0.59375 12.0001 0.59375C10.3448 0.59375 9.00014 1.67227 9.00014 3C9.00014 4.32773 10.3448 5.40625 12.0001 5.40625C13.6555 5.40625 15.0001 4.32773 15.0001 3ZM17.5716 3C17.5716 4.32773 18.9162 5.40625 20.5716 5.40625C22.2269 5.40625 23.5716 4.32773 23.5716 3C23.5716 1.67227 22.2269 0.59375 20.5716 0.59375C18.9162 0.59375 17.5716 1.67227 17.5716 3Z" fill="black"/>
</svg>
